<svg width="80" height="80" viewBox="0 0 80 80" fill="none" xmlns="http://www.w3.org/2000/svg">
<path d="M48 0.5C65.3971 0.5 79.5 14.6031 79.5 32C79.5 44.7747 71.8953 55.7743 60.9639 60.7168L60.792 60.7949L60.7139 60.9668C55.7714 71.8975 44.7728 79.5 32 79.5C14.603 79.5 0.500021 65.397 0.5 48C0.5 35.2272 8.10248 24.2289 19.0312 19.2852L19.2031 19.207L19.2812 19.0352C24.2257 8.10469 35.2253 0.500032 48 0.5ZM32 23.5C18.469 23.5 7.5 34.4691 7.5 48C7.50002 61.5309 18.469 72.5 32 72.5C45.5309 72.5 56.5 61.5309 56.5 48C56.5 34.4691 45.5309 23.5 32 23.5ZM35.5 28.5V32.5H43.5V39.5H28C26.6193 39.5 25.5 40.6195 25.5 42C25.5 43.2279 26.3846 44.2478 27.5508 44.46L27.5732 44.4639L27.5957 44.4658L27.9561 44.498L27.9775 44.5H36C41.2467 44.5 45.5 48.7533 45.5 54C45.5 59.2466 41.2466 63.5 36 63.5H35.5V67.5H28.5V63.5H20.5V56.5H36C37.3805 56.5 38.5 55.3805 38.5 54C38.5 52.7721 37.6155 51.7517 36.4492 51.54L36.4268 51.5361L36.4043 51.5342L36.0449 51.502L36.0225 51.5H28C22.7533 51.5 18.5 47.2466 18.5 42C18.5 36.7533 22.7533 32.5 28 32.5H28.5V28.5H35.5ZM48 7.5C40.7174 7.50002 34.1761 10.6783 29.6895 15.7217L28.8926 16.6172L30.0898 16.5527C30.7246 16.5186 31.3605 16.5 32 16.5C49.3971 16.5 63.5 30.6031 63.5 48C63.5 48.6407 63.4808 49.2767 63.4434 49.9082L63.3721 51.1143L64.2744 50.3115C69.3206 45.8254 72.5 39.2839 72.5 32C72.5 18.4691 61.5309 7.5 48 7.5Z" stroke="black" stroke-opacity="0.2"/>
</svg>
