<svg width="17" height="17" viewBox="0 0 17 17" fill="none" xmlns="http://www.w3.org/2000/svg">
<path d="M4.16649 4.16667V0.833333C4.16649 0.3731 4.53958 0 4.99983 0H15.8332C16.2934 0 16.6665 0.3731 16.6665 0.833333V11.6667C16.6665 12.1269 16.2934 12.5 15.8332 12.5H12.5V15.8271C12.5 16.2907 12.1258 16.6667 11.6604 16.6667H0.8394C0.375717 16.6667 0 16.2926 0 15.8271L0.00229994 5.00623C0.00239994 4.54256 0.3765 4.16667 0.841875 4.16667H4.16649ZM5.83316 4.16667H11.6606C12.1242 4.16667 12.5 4.54077 12.5 5.00623V10.8333H14.9998V1.66667H5.83316V4.16667ZM10.8333 5.83333H1.66879L1.66684 15H10.8333V5.83333ZM5.41868 13.3333L2.47241 10.3871L3.65092 9.20858L5.41868 10.9763L8.95425 7.44075L10.1328 8.61925L5.41868 13.3333Z" fill="black" fill-opacity="0.6"/>
</svg>
