<svg width="19" height="17" viewBox="0 0 19 17" fill="none" xmlns="http://www.w3.org/2000/svg">
<path d="M16.6667 9.3685V15H17.5V16.6667H0.833333V15H1.66667V9.3685C0.661675 8.69583 0 7.55017 0 6.25C0 5.56072 0.187025 4.89684 0.527683 4.33122L2.78775 0.416667C2.93661 0.158833 3.21172 0 3.50943 0H14.8239C15.1216 0 15.3968 0.158833 15.5456 0.416667L17.7979 4.3181C18.1463 4.89684 18.3333 5.56072 18.3333 6.25C18.3333 7.55017 17.6717 8.69583 16.6667 9.3685ZM15 9.97708C14.8632 9.99225 14.7242 10 14.5833 10C13.5341 10 12.5658 9.565 11.875 8.84433C11.1843 9.565 10.2159 10 9.16667 10C8.11742 10 7.14908 9.565 6.45833 8.84433C5.76758 9.565 4.79926 10 3.75 10C3.60917 10 3.47014 9.99225 3.33333 9.97708V15H15V9.97708ZM3.99054 1.66667L1.96332 5.17767C1.77008 5.49869 1.66667 5.86575 1.66667 6.25C1.66667 7.40058 2.59941 8.33333 3.75 8.33333C4.60913 8.33333 5.37056 7.80858 5.68483 7.02458C5.9645 6.32686 6.95217 6.32686 7.23184 7.02458C7.54608 7.80858 8.3075 8.33333 9.16667 8.33333C10.0258 8.33333 10.7873 7.80858 11.1015 7.02458C11.3812 6.32686 12.3688 6.32686 12.6485 7.02458C12.9628 7.80858 13.7242 8.33333 14.5833 8.33333C15.7339 8.33333 16.6667 7.40058 16.6667 6.25C16.6667 5.86575 16.5633 5.49869 16.3623 5.16455L14.3428 1.66667H3.99054Z" fill="black" fill-opacity="0.6"/>
</svg>
