<svg width="20" height="20" viewBox="0 0 20 20" fill="none" xmlns="http://www.w3.org/2000/svg">
<path d="M12 0C16.4183 0 20 3.58172 20 7.99999C20 11.2446 18.0684 14.0381 15.2924 15.2932C14.0373 18.069 11.2441 20 8.00002 20C3.58172 20 0 16.4183 0 12C0 8.75589 1.93102 5.96273 4.70634 4.70731C5.96193 1.93157 8.75542 0 12 0ZM8.00002 6C4.68629 6 2 8.68629 2 12C2 15.3137 4.68629 18 8.00002 18C11.3137 18 14 15.3137 14 12C14 8.68629 11.3137 6 8.00002 6ZM9.00002 7V7.99999H11V9.99999H7C6.72386 9.99999 6.5 10.2239 6.5 10.5C6.5 10.7455 6.67688 10.9496 6.91013 10.992L7 11H9.00002C10.3807 11 11.5 12.1193 11.5 13.5C11.5 14.8807 10.3807 16 9.00002 16V17H7V16H5V14H9.00002C9.27612 14 9.50002 13.7761 9.50002 13.5C9.50002 13.2545 9.32312 13.0504 9.08992 13.0081L9.00002 13H7C5.61929 13 4.5 11.8807 4.5 10.5C4.5 9.11929 5.61929 7.99999 7 7.99999V7H9.00002ZM12 2C10.2165 2 8.61472 2.77816 7.51576 4.01348C7.67645 4.00483 7.83766 4 8.00002 4C12.4183 4 16 7.58172 16 12C16 12.1627 15.9951 12.3242 15.9856 12.4845C17.2216 11.3857 18 9.78379 18 7.99999C18 4.68629 15.3137 2 12 2Z" fill="#DC6DA5"/>
</svg>
