<svg width="17" height="17" viewBox="0 0 17 17" fill="none" xmlns="http://www.w3.org/2000/svg">
<path d="M10 0C13.6819 0 16.6667 2.98477 16.6667 6.66666C16.6667 9.37049 15.057 11.6984 12.7437 12.7443C11.6978 15.0575 9.3701 16.6667 6.66668 16.6667C2.98477 16.6667 0 13.6819 0 9.99999C0 7.29658 1.60918 4.96894 3.92195 3.92276C4.96828 1.60964 7.29618 0 10 0ZM6.66668 5C3.90524 5 1.66667 7.23858 1.66667 9.99999C1.66667 12.7614 3.90524 15 6.66668 15C9.4281 15 11.6667 12.7614 11.6667 9.99999C11.6667 7.23858 9.4281 5 6.66668 5ZM7.50002 5.83333V6.66666H9.16668V8.33333H5.83333C5.60322 8.33333 5.41667 8.51991 5.41667 8.74999C5.41667 8.95458 5.56407 9.12466 5.75844 9.15999L5.83333 9.16666H7.50002C8.6506 9.16666 9.58335 10.0994 9.58335 11.25C9.58335 12.4006 8.6506 13.3333 7.50002 13.3333V14.1667H5.83333V13.3333H4.16667V11.6667H7.50002C7.7301 11.6667 7.91668 11.4801 7.91668 11.25C7.91668 11.0454 7.76927 10.8753 7.57493 10.8401L7.50002 10.8333H5.83333C4.68274 10.8333 3.75 9.90058 3.75 8.74999C3.75 7.59941 4.68274 6.66666 5.83333 6.66666V5.83333H7.50002ZM10 1.66667C8.51377 1.66667 7.17893 2.31513 6.26313 3.34457C6.39704 3.33736 6.53138 3.33333 6.66668 3.33333C10.3486 3.33333 13.3333 6.3181 13.3333 9.99999C13.3333 10.1356 13.3293 10.2702 13.3214 10.4037C14.3514 9.48807 15 8.15316 15 6.66666C15 3.90524 12.7614 1.66667 10 1.66667Z" fill="black" fill-opacity="0.6"/>
</svg>
