<svg width="14" height="14" viewBox="0 0 14 14" fill="none" xmlns="http://www.w3.org/2000/svg">
<path d="M8.66667 1.625C9.56413 1.625 10.2917 0.89746 10.2917 0H11.0417C11.0417 0.89746 11.7692 1.625 12.6667 1.625V2.375C11.7692 2.375 11.0417 3.10254 11.0417 4H10.2917C10.2917 3.10254 9.56413 2.375 8.66667 2.375V1.625ZM0 6C2.20914 6 4 4.20914 4 2H5.33333C5.33333 4.20914 7.1242 6 9.33333 6V7.33333C7.1242 7.33333 5.33333 9.1242 5.33333 11.3333H4C4 9.1242 2.20914 7.33333 0 7.33333V6ZM2.58401 6.66667C3.45811 7.15173 4.18162 7.8752 4.66667 8.74933C5.15171 7.8752 5.87522 7.15173 6.74933 6.66667C5.87522 6.1816 5.15171 5.45813 4.66667 4.58401C4.18162 5.45813 3.45811 6.1816 2.58401 6.66667ZM10.8333 8C10.8333 9.1966 9.86327 10.1667 8.66667 10.1667V11.1667C9.86327 11.1667 10.8333 12.1367 10.8333 13.3333H11.8333C11.8333 12.1367 12.8034 11.1667 14 11.1667V10.1667C12.8034 10.1667 11.8333 9.1966 11.8333 8H10.8333Z" fill="#009966"/>
</svg>
